<?xml version="1.0" encoding="UTF-8" standalone="no"?>
<svg
   xmlns:dc="http://purl.org/dc/elements/1.1/"
   xmlns:cc="http://creativecommons.org/ns#"
   xmlns:rdf="http://www.w3.org/1999/02/22-rdf-syntax-ns#"
   xmlns:svg="http://www.w3.org/2000/svg"
   xmlns="http://www.w3.org/2000/svg"
   xmlns:xlink="http://www.w3.org/1999/xlink"
   xmlns:sodipodi="http://sodipodi.sourceforge.net/DTD/sodipodi-0.dtd"
   xmlns:inkscape="http://www.inkscape.org/namespaces/inkscape"
   width="64"
   height="64"
   version="1.1"
   viewBox="0 0 16.933 16.933"
   id="svg20"
   sodipodi:docname="pidgin.svg"
   inkscape:version="1.0.2 (e86c870879, 2021-01-15)">
  <metadata
     id="metadata26">
    <rdf:RDF>
      <cc:Work
         rdf:about="">
        <dc:format>image/svg+xml</dc:format>
        <dc:type
           rdf:resource="http://purl.org/dc/dcmitype/StillImage" />
        <dc:title></dc:title>
      </cc:Work>
    </rdf:RDF>
  </metadata>
  <defs
     id="defs24">
    <linearGradient
       inkscape:collect="always"
       id="linearGradient1096">
      <stop
         style="stop-color:#28282c;stop-opacity:1;"
         offset="0"
         id="stop1092" />
      <stop
         style="stop-color:#28282c;stop-opacity:0;"
         offset="1"
         id="stop1094" />
    </linearGradient>
    <linearGradient
       inkscape:collect="always"
       id="linearGradient1086">
      <stop
         style="stop-color:#f0e58e;stop-opacity:1;"
         offset="0"
         id="stop1082" />
      <stop
         style="stop-color:#f0e58e;stop-opacity:0;"
         offset="1"
         id="stop1084" />
    </linearGradient>
    <linearGradient
       inkscape:collect="always"
       id="linearGradient873">
      <stop
         style="stop-color:#0413b7;stop-opacity:1"
         offset="0"
         id="stop869" />
      <stop
         style="stop-color:#042cb7;stop-opacity:0"
         offset="1"
         id="stop871" />
    </linearGradient>
    <linearGradient
       inkscape:collect="always"
       id="linearGradient863">
      <stop
         style="stop-color:#c459e1;stop-opacity:1"
         offset="0"
         id="stop859" />
      <stop
         style="stop-color:#e159df;stop-opacity:0"
         offset="1"
         id="stop861" />
    </linearGradient>
    <linearGradient
       inkscape:collect="always"
       id="linearGradient894">
      <stop
         style="stop-color:#969af2;stop-opacity:1"
         offset="0"
         id="stop890" />
      <stop
         style="stop-color:#9da0f2;stop-opacity:1;"
         offset="0.314491"
         id="stop1071" />
      <stop
         style="stop-color:#a0a3f2;stop-opacity:1;"
         offset="0.35131392"
         id="stop1076" />
      <stop
         style="stop-color:#c0bff3;stop-opacity:1;"
         offset="0.47332549"
         id="stop1078" />
      <stop
         style="stop-color:#c6c4f4;stop-opacity:1;"
         offset="0.51171732"
         id="stop1073" />
      <stop
         style="stop-color:#e2ddf6;stop-opacity:1"
         offset="1"
         id="stop892" />
    </linearGradient>
    <linearGradient
       inkscape:collect="always"
       xlink:href="#linearGradient1234"
       id="linearGradient1236"
       x1="342.63245"
       y1="348.09451"
       x2="403.47034"
       y2="348.09451"
       gradientUnits="userSpaceOnUse"
       gradientTransform="matrix(0.19284653,0,0,0.19284653,-65.511907,-59.933259)" />
    <linearGradient
       inkscape:collect="always"
       id="linearGradient1234">
      <stop
         style="stop-color:#a84bd7;stop-opacity:1"
         offset="0"
         id="stop1230" />
      <stop
         style="stop-color:#1420dc;stop-opacity:1"
         offset="1"
         id="stop1232" />
    </linearGradient>
    <radialGradient
       inkscape:collect="always"
       xlink:href="#linearGradient863"
       id="radialGradient865"
       cx="6.429945"
       cy="1.3293704"
       fx="6.429945"
       fy="1.3293704"
       r="5.8661875"
       gradientTransform="matrix(1,0,0,0.90632074,1e-7,0.67407452)"
       gradientUnits="userSpaceOnUse" />
    <radialGradient
       inkscape:collect="always"
       xlink:href="#linearGradient873"
       id="radialGradient875"
       cx="1.3947227"
       cy="9.2193308"
       fx="1.3947227"
       fy="9.2193308"
       r="5.8661875"
       gradientTransform="matrix(1,0,0,0.90632076,10.16903,2.1673156)"
       gradientUnits="userSpaceOnUse" />
    <radialGradient
       inkscape:collect="always"
       xlink:href="#linearGradient1053"
       id="radialGradient1057"
       gradientUnits="userSpaceOnUse"
       gradientTransform="matrix(4.4617467,0.06625679,-0.06451699,4.3445881,-130.93901,-50.22414)"
       cx="38.104725"
       cy="15.033216"
       fx="38.104725"
       fy="15.033216"
       r="2.1969876" />
    <linearGradient
       inkscape:collect="always"
       id="linearGradient1053">
      <stop
         style="stop-color:#515252;stop-opacity:1"
         offset="0"
         id="stop1049" />
      <stop
         id="stop1063"
         offset="0.27717119"
         style="stop-color:#494a4b;stop-opacity:1" />
      <stop
         id="stop1059"
         offset="0.53436339"
         style="stop-color:#616366;stop-opacity:1" />
      <stop
         style="stop-color:#363839;stop-opacity:1"
         offset="0.53436339"
         id="stop1061" />
      <stop
         style="stop-color:#232527;stop-opacity:1"
         offset="1"
         id="stop1051" />
    </linearGradient>
    <radialGradient
       inkscape:collect="always"
       xlink:href="#linearGradient1071"
       id="radialGradient1073"
       cx="38.246468"
       cy="9.9801455"
       fx="38.246468"
       fy="9.9801455"
       r="2.1969876"
       gradientTransform="matrix(3.1287532,4.5210122e-7,-5.788842e-7,4.3878297,-81.417285,-35.95764)"
       gradientUnits="userSpaceOnUse" />
    <linearGradient
       inkscape:collect="always"
       id="linearGradient1071">
      <stop
         style="stop-color:#ffffff;stop-opacity:0"
         offset="0"
         id="stop1067" />
      <stop
         id="stop1077"
         offset="0.71252245"
         style="stop-color:#000000;stop-opacity:0" />
      <stop
         id="stop1075"
         offset="0.81252551"
         style="stop-color:#000000;stop-opacity:0.18431373" />
      <stop
         style="stop-color:#000000;stop-opacity:0.58039218"
         offset="0.90386021"
         id="stop1079" />
      <stop
         style="stop-color:#f0a44a;stop-opacity:1"
         offset="1"
         id="stop1069" />
    </linearGradient>
    <radialGradient
       inkscape:collect="always"
       xlink:href="#linearGradient1103"
       id="radialGradient1105"
       cx="30.786106"
       cy="14.974051"
       fx="30.786106"
       fy="14.974051"
       r="2.054635"
       gradientTransform="matrix(1,0,0,1.4390242,-0.06681738,-7.1085101)"
       gradientUnits="userSpaceOnUse" />
    <linearGradient
       inkscape:collect="always"
       id="linearGradient1103">
      <stop
         style="stop-color:#000000;stop-opacity:1;"
         offset="0"
         id="stop1099" />
      <stop
         style="stop-color:#000000;stop-opacity:0;"
         offset="1"
         id="stop1101" />
    </linearGradient>
    <radialGradient
       inkscape:collect="always"
       xlink:href="#linearGradient1087"
       id="radialGradient1091"
       gradientUnits="userSpaceOnUse"
       gradientTransform="matrix(2.290324,-3.1607419e-7,5.6982382e-7,4.1290343,-39.724062,-41.643608)"
       cx="30.78611"
       cy="13.141658"
       fx="30.78611"
       fy="13.141658"
       r="1.5535046" />
    <linearGradient
       inkscape:collect="always"
       id="linearGradient1087">
      <stop
         style="stop-color:#f7f7f7;stop-opacity:1"
         offset="0"
         id="stop1083" />
      <stop
         id="stop1093"
         offset="0.42592517"
         style="stop-color:#ffffff;stop-opacity:0.92156863" />
      <stop
         style="stop-color:#727478;stop-opacity:1"
         offset="1"
         id="stop1085" />
    </linearGradient>
    <radialGradient
       inkscape:collect="always"
       xlink:href="#linearGradient1053"
       id="radialGradient1130"
       gradientUnits="userSpaceOnUse"
       gradientTransform="matrix(4.4617467,0.06625679,-0.06451699,4.3445881,-130.93901,-50.22414)"
       cx="38.104725"
       cy="15.033216"
       fx="38.104725"
       fy="15.033216"
       r="2.1969876" />
    <radialGradient
       inkscape:collect="always"
       xlink:href="#linearGradient1071"
       id="radialGradient1132"
       gradientUnits="userSpaceOnUse"
       gradientTransform="matrix(3.1287532,4.5210122e-7,-5.788842e-7,4.3878297,-81.417285,-35.95764)"
       cx="38.246468"
       cy="9.9801455"
       fx="38.246468"
       fy="9.9801455"
       r="2.1969876" />
    <radialGradient
       inkscape:collect="always"
       xlink:href="#linearGradient1103"
       id="radialGradient1134"
       gradientUnits="userSpaceOnUse"
       gradientTransform="matrix(1,0,0,1.4390242,-0.06681738,-7.1085101)"
       cx="30.786106"
       cy="14.974051"
       fx="30.786106"
       fy="14.974051"
       r="2.054635" />
    <radialGradient
       inkscape:collect="always"
       xlink:href="#linearGradient1087"
       id="radialGradient1136"
       gradientUnits="userSpaceOnUse"
       gradientTransform="matrix(2.290324,-3.1607419e-7,5.6982382e-7,4.1290343,-39.724062,-41.643608)"
       cx="30.78611"
       cy="13.141658"
       fx="30.78611"
       fy="13.141658"
       r="1.5535046" />
    <radialGradient
       inkscape:collect="always"
       xlink:href="#linearGradient1047"
       id="radialGradient1049"
       cx="16.540636"
       cy="22.881735"
       fx="16.540636"
       fy="22.881735"
       r="7.2329712"
       gradientTransform="matrix(0.41068484,0,0,0.30716514,-0.24871522,2.2288893)"
       gradientUnits="userSpaceOnUse" />
    <linearGradient
       inkscape:collect="always"
       id="linearGradient1047">
      <stop
         style="stop-color:#742900;stop-opacity:1;"
         offset="0"
         id="stop1043" />
      <stop
         style="stop-color:#742900;stop-opacity:0;"
         offset="1"
         id="stop1045" />
    </linearGradient>
    <radialGradient
       inkscape:collect="always"
       xlink:href="#linearGradient1072"
       id="radialGradient1074"
       cx="16.711889"
       cy="21.446487"
       fx="16.711889"
       fy="21.446487"
       r="5.6385231"
       gradientTransform="matrix(0.41068485,0,0,0.56374622,-0.37083022,-3.4898304)"
       gradientUnits="userSpaceOnUse" />
    <linearGradient
       inkscape:collect="always"
       id="linearGradient1072">
      <stop
         style="stop-color:#001c30;stop-opacity:1;"
         offset="0"
         id="stop1068" />
      <stop
         style="stop-color:#001c30;stop-opacity:0;"
         offset="1"
         id="stop1070" />
    </linearGradient>
    <radialGradient
       inkscape:collect="always"
       xlink:href="#linearGradient1029"
       id="radialGradient1031"
       cx="16.645264"
       cy="20.187857"
       fx="16.645264"
       fy="20.187857"
       r="5.8431616"
       gradientTransform="matrix(0.40072241,0,0,0.17346232,-0.10720112,6.0705468)"
       gradientUnits="userSpaceOnUse" />
    <linearGradient
       inkscape:collect="always"
       id="linearGradient1029">
      <stop
         style="stop-color:#742900;stop-opacity:1"
         offset="0"
         id="stop1025" />
      <stop
         style="stop-color:#e38707;stop-opacity:1"
         offset="1"
         id="stop1027" />
    </linearGradient>
    <radialGradient
       inkscape:collect="always"
       xlink:href="#linearGradient987"
       id="radialGradient993"
       gradientUnits="userSpaceOnUse"
       gradientTransform="matrix(0.12491325,0,0,0.09204742,-27.13334,-16.399313)"
       cx="269.22693"
       cy="290.23453"
       fx="269.22693"
       fy="290.23453"
       r="46.835587" />
    <linearGradient
       inkscape:collect="always"
       id="linearGradient987">
      <stop
         style="stop-color:#feec00;stop-opacity:1"
         offset="0"
         id="stop983" />
      <stop
         id="stop995"
         offset="0.24227193"
         style="stop-color:#fad400;stop-opacity:1;" />
      <stop
         style="stop-color:#f8c900;stop-opacity:1;"
         offset="0.36957547"
         id="stop997" />
      <stop
         id="stop999"
         offset="0.63373035"
         style="stop-color:#f18300;stop-opacity:1" />
      <stop
         style="stop-color:#e86800;stop-opacity:1"
         offset="1"
         id="stop985" />
    </linearGradient>
    <linearGradient
       inkscape:collect="always"
       xlink:href="#linearGradient1021"
       id="linearGradient1023"
       x1="63.693638"
       y1="108.25597"
       x2="63.693638"
       y2="63.613106"
       gradientUnits="userSpaceOnUse"
       gradientTransform="matrix(0.10866036,0,0,0.10866036,-0.22600142,-0.20525425)" />
    <linearGradient
       inkscape:collect="always"
       id="linearGradient1021">
      <stop
         style="stop-color:#fffe51;stop-opacity:1"
         offset="0"
         id="stop1017" />
      <stop
         style="stop-color:#fefd00;stop-opacity:0;"
         offset="1"
         id="stop1019" />
    </linearGradient>
    <radialGradient
       inkscape:collect="always"
       xlink:href="#linearGradient894"
       id="radialGradient1068"
       gradientUnits="userSpaceOnUse"
       gradientTransform="matrix(1.3344771,-1.8367641,1.2802378,0.93014014,-10.857446,51.786955)"
       cx="20.597254"
       cy="-6.1991973"
       fx="20.597254"
       fy="-6.1991973"
       r="4.7889585" />
    <radialGradient
       inkscape:collect="always"
       xlink:href="#linearGradient1086"
       id="radialGradient1088"
       cx="3.9386001"
       cy="7.3163705"
       fx="3.9386001"
       fy="7.3163705"
       r="4.7889585"
       gradientTransform="matrix(0.46890993,0,0,0.4371103,5.2727286,6.3686115)"
       gradientUnits="userSpaceOnUse" />
    <radialGradient
       inkscape:collect="always"
       xlink:href="#linearGradient1096"
       id="radialGradient1098"
       cx="1.628865"
       cy="-4.5160728"
       fx="1.628865"
       fy="-4.5160728"
       r="4.7889585"
       gradientTransform="matrix(0.25013756,0,0,0.32724557,8.9354876,7.3018338)"
       gradientUnits="userSpaceOnUse" />
  </defs>
  <sodipodi:namedview
     pagecolor="#ffffff"
     bordercolor="#666666"
     borderopacity="1"
     objecttolerance="10"
     gridtolerance="10"
     guidetolerance="10"
     inkscape:pageopacity="0"
     inkscape:pageshadow="2"
     inkscape:window-width="1920"
     inkscape:window-height="1028"
     id="namedview22"
     showgrid="false"
     inkscape:zoom="2.5080193"
     inkscape:cx="-101.08922"
     inkscape:cy="69.035204"
     inkscape:window-x="0"
     inkscape:window-y="24"
     inkscape:window-maximized="1"
     inkscape:current-layer="svg20"
     inkscape:document-rotation="0" />
  <circle
     cx="-330.35"
     cy="-328.38"
     r="0"
     fill="#5e4aa6"
     stroke-width=".26458"
     id="circle2" />
  <circle
     cx="-65.741"
     cy="5.3371"
     r="0"
     fill="#5e4aa6"
     fill-rule="evenodd"
     stroke-width=".40965"
     id="circle4" />
  <path
     id="path1197"
     style="fill:url(#linearGradient1236);fill-opacity:1;stroke:none;stroke-width:0.953095;stroke-linecap:square;stroke-miterlimit:4;stroke-dasharray:none;stroke-opacity:1"
     d="M 6.4299451,1.8789104 A 5.8663277,5.0704648 0 0 0 0.56356906,6.9494184 5.8663277,5.0704648 0 0 0 2.7500418,10.898629 l -0.2824893,1.246346 c -0.07214,0.262004 0.224078,0.469908 0.4459576,0.313001 l 1.2376833,-0.83655 a 5.8663277,5.0704648 0 0 0 2.2787517,0.3985 5.8663277,5.0704648 0 0 0 5.8659989,-5.0705076 5.8663277,5.0704648 0 0 0 -5.8659989,-5.070508 z" />
  <path
     id="path1266"
     style="fill:#ffffff;fill-opacity:0.237218;stroke:none;stroke-width:0.786275;stroke-linecap:square;stroke-miterlimit:4;stroke-dasharray:none;stroke-opacity:1"
     d="m 11.882451,6.3905028 a 4.7890156,4.2271422 0 0 0 -4.755248,4.2271802 4.7890156,4.2271422 0 0 0 1.8520035,3.338656 4.7890156,4.2271422 0 0 1 -1.6798727,-3.215112 4.7890156,4.2271422 0 0 1 4.7552482,-4.227181 4.7890156,4.2271422 0 0 1 0.03353,0 4.7890156,4.2271422 0 0 1 2.935635,0.8873946 4.7890156,4.2271422 0 0 0 -3.107765,-1.0109378 4.7890156,4.2271422 0 0 0 -0.03353,0 z" />
  <path
     id="path857"
     style="fill:url(#radialGradient865);fill-opacity:1;stroke:none;stroke-width:0.953095;stroke-linecap:square;stroke-miterlimit:4;stroke-dasharray:none;stroke-opacity:1"
     d="m 6.4299451,1.8789104 a 5.8663277,5.0704648 0 0 0 -5.866376,5.070508 5.8663277,5.0704648 0 0 0 2.186473,3.9492106 l -0.28249,1.246346 c -0.07214,0.262004 0.224078,0.469908 0.445958,0.313001 l 1.237683,-0.83655 a 5.8663277,5.0704648 0 0 0 2.278752,0.3985 5.8663277,5.0704648 0 0 0 5.8659989,-5.0705076 5.8663277,5.0704648 0 0 0 -5.8659989,-5.070508 z" />
  <path
     style="opacity:0.321;fill:url(#radialGradient1074);fill-opacity:1;stroke:none;stroke-width:0;stroke-linecap:round;stroke-linejoin:round;stroke-miterlimit:4;stroke-dasharray:none;stroke-opacity:1"
     d="M 4.280767,9.1722878 A 2.3156559,2.3143083 0 0 0 4.231742,9.6432198 2.3156559,2.3143083 0 0 0 6.5473539,11.957557 2.3156559,2.3143083 0 0 0 8.8629657,9.6432198 2.3156559,2.3143083 0 0 0 8.8120311,9.1722878 Z"
     id="path1066" />
  <path
     id="path867"
     style="fill:url(#radialGradient875);fill-opacity:1;stroke:none;stroke-width:0.953095;stroke-linecap:square;stroke-miterlimit:4;stroke-dasharray:none;stroke-opacity:1"
     d="m 6.4299454,1.8789109 a 5.8663277,5.0704648 0 0 0 -5.866376,5.070508 5.8663277,5.0704648 0 0 0 2.186472,3.9492101 l -0.282489,1.246346 c -0.07214,0.262004 0.224078,0.469908 0.445958,0.313001 l 1.237683,-0.83655 a 5.8663277,5.0704648 0 0 0 2.278752,0.3985 5.8663277,5.0704648 0 0 0 5.8659986,-5.0705071 5.8663277,5.0704648 0 0 0 -5.8659986,-5.070508 z" />
  <g
     id="g1066">
    <path
       style="fill:#fffabe;fill-opacity:0.3;stroke:none;stroke-width:0.0509945"
       d="m 6.4996083,7.6473668 c -0.9300299,-0.0098 -2.3913767,1.43784 -2.3913767,1.43784 0,0 0.049999,0.03658 0.060697,0.04478 0.277961,-0.264071 1.509519,-1.388305 2.3306796,-1.37969 0.8289251,0.0087 2.0483133,1.168527 2.3251621,1.442721 0.010522,-0.0077 0.060272,-0.04245 0.060272,-0.04245 0,0 -1.4456611,-1.493347 -2.3854346,-1.503206 z"
       id="path1061"
       inkscape:connector-curvature="0" />
    <g
       transform="matrix(0.41068484,0,0,0.41068484,-0.38435152,-0.81976759)"
       id="g1150">
      <g
         transform="translate(-14.512942,2.7345953)"
         id="g1116">
        <rect
           style="opacity:1;fill:url(#radialGradient1057);fill-opacity:1;stroke:#000000;stroke-width:0;stroke-linecap:round;stroke-linejoin:round;stroke-miterlimit:4;stroke-dasharray:none;stroke-opacity:0.0941176"
           id="rect1047"
           width="4.3939743"
           height="8.5044641"
           x="36.002232"
           y="8.0225439"
           rx="2.1969867"
           ry="2.1969867" />
        <rect
           ry="2.1969867"
           rx="2.1969867"
           y="8.0225439"
           x="36.002232"
           height="8.5044641"
           width="4.3939743"
           id="rect1065"
           style="opacity:1;fill:url(#radialGradient1073);fill-opacity:1;stroke:#000000;stroke-width:0;stroke-linecap:round;stroke-linejoin:round;stroke-miterlimit:4;stroke-dasharray:none;stroke-opacity:0.0941176" />
        <g
           id="g1109"
           transform="translate(7.4501381,-2.9733735)">
          <ellipse
             ry="2.9566691"
             rx="2.0546346"
             cy="14.439512"
             cx="30.719288"
             id="path1097"
             style="opacity:1;fill:url(#radialGradient1105);fill-opacity:1;stroke:#000000;stroke-width:0;stroke-linecap:round;stroke-linejoin:round;stroke-miterlimit:4;stroke-dasharray:none;stroke-opacity:0.0941176" />
          <rect
             ry="1.5535041"
             rx="1.5535041"
             y="11.917157"
             x="29.199196"
             height="4.6103992"
             width="3.1070082"
             id="rect1081"
             style="opacity:1;fill:url(#radialGradient1091);fill-opacity:1;stroke:#000000;stroke-width:0;stroke-linecap:round;stroke-linejoin:round;stroke-miterlimit:4;stroke-dasharray:none;stroke-opacity:0.0941176" />
        </g>
      </g>
      <g
         id="g1128"
         transform="translate(-28.410957,2.7345953)">
        <rect
           ry="2.1969867"
           rx="2.1969867"
           y="8.0225439"
           x="36.002232"
           height="8.5044641"
           width="4.3939743"
           id="rect1118"
           style="opacity:1;fill:url(#radialGradient1130);fill-opacity:1;stroke:#000000;stroke-width:0;stroke-linecap:round;stroke-linejoin:round;stroke-miterlimit:4;stroke-dasharray:none;stroke-opacity:0.0941176" />
        <rect
           style="opacity:1;fill:url(#radialGradient1132);fill-opacity:1;stroke:#000000;stroke-width:0;stroke-linecap:round;stroke-linejoin:round;stroke-miterlimit:4;stroke-dasharray:none;stroke-opacity:0.0941176"
           id="rect1120"
           width="4.3939743"
           height="8.5044641"
           x="36.002232"
           y="8.0225439"
           rx="2.1969867"
           ry="2.1969867" />
        <g
           transform="translate(7.4501381,-2.9733735)"
           id="g1126">
          <ellipse
             style="opacity:1;fill:url(#radialGradient1134);fill-opacity:1;stroke:#000000;stroke-width:0;stroke-linecap:round;stroke-linejoin:round;stroke-miterlimit:4;stroke-dasharray:none;stroke-opacity:0.0941176"
             id="ellipse1122"
             cx="30.719288"
             cy="14.439512"
             rx="2.0546346"
             ry="2.9566691" />
          <rect
             style="opacity:1;fill:url(#radialGradient1136);fill-opacity:1;stroke:#000000;stroke-width:0;stroke-linecap:round;stroke-linejoin:round;stroke-miterlimit:4;stroke-dasharray:none;stroke-opacity:0.0941176"
             id="rect1124"
             width="3.1070082"
             height="4.6103992"
             x="29.199196"
             y="11.917157"
             rx="1.5535041"
             ry="1.5535041" />
        </g>
      </g>
    </g>
    <path
       style="fill:url(#radialGradient1031);fill-opacity:1;stroke:none;stroke-width:0.0509945"
       d="m 4.1083297,9.0851888 c 0,0 1.3501232,1.8840302 2.3595134,1.8985272 1.0111073,0.01452 2.4171686,-1.8330942 2.4171686,-1.8330942 z"
       id="path3767"
       inkscape:connector-curvature="0"
       sodipodi:nodetypes="cacc" />
    <path
       style="fill:url(#radialGradient993);fill-opacity:1;stroke:none;stroke-width:0.0509945"
       d="m 4.1083297,9.0851888 c 0,0 1.5020749,1.1734262 2.3913201,1.1828812 0.8779941,0.0093 2.3853619,-1.1174482 2.3853619,-1.1174482 0,0 -1.4455888,-1.4933 -2.3853619,-1.503158 -0.9300303,-0.0098 -2.3913201,1.437725 -2.3913201,1.437725 z"
       id="path3761"
       inkscape:connector-curvature="0"
       sodipodi:nodetypes="cacac" />
    <path
       inkscape:connector-curvature="0"
       style="opacity:0.312;fill:url(#linearGradient1023);fill-opacity:1;stroke:none;stroke-width:0;stroke-linecap:round;stroke-linejoin:round;stroke-miterlimit:4;stroke-dasharray:none;stroke-opacity:1"
       d="m 6.4996929,7.6473668 c -0.00445,-4.6e-5 -0.00911,4.02e-4 -0.013581,4.11e-4 L 5.9188284,10.143995 c 0.2065207,0.0743 0.4057308,0.122291 0.5808661,0.124153 0.1734909,0.0018 0.3717412,-0.04179 0.5778948,-0.111207 L 6.5073331,7.6477918 c -0.00251,-4.8e-5 -0.00513,-4.02e-4 -0.00764,-4.11e-4 z"
       id="path1011" />
  </g>
  <path
     id="ellipse1199-3"
     style="fill:url(#radialGradient1068);fill-opacity:1;stroke:none;stroke-width:0.786275;stroke-linecap:square;stroke-miterlimit:4;stroke-dasharray:none;stroke-opacity:1"
     d="m 11.882459,6.3905028 a 4.7890156,4.2271422 0 0 0 -4.755248,4.2271822 4.7890156,4.2271422 0 0 0 4.78877,4.227181 4.7890156,4.2271422 0 0 0 1.777426,-0.302077 l 1.065553,0.719785 c 0.221879,0.156907 0.518097,-0.051 0.445956,-0.312998 l -0.242939,-1.070449 a 4.7890156,4.2271422 0 0 0 1.743151,-3.261442 4.7890156,4.2271422 0 0 0 -4.789147,-4.2271822 4.7890156,4.2271422 0 0 0 -0.03353,0 z" />
  <path
     id="path932"
     style="fill:#ffffff;fill-opacity:0.15986158;stroke:none;stroke-width:2.97181;stroke-linecap:square;stroke-miterlimit:4;stroke-dasharray:none;stroke-opacity:1"
     d="M 44.910156 24.154297 A 18.100573 15.976915 0 0 0 26.9375 40.130859 A 18.100573 15.976915 0 0 0 33.873047 52.705078 A 18.100573 15.976915 0 0 1 27.705078 40.691406 A 18.100573 15.976915 0 0 1 45.677734 24.714844 A 18.100573 15.976915 0 0 1 45.804688 24.714844 A 18.100573 15.976915 0 0 1 56.970703 28.117188 A 18.100573 15.976915 0 0 0 45.037109 24.154297 A 18.100573 15.976915 0 0 0 44.910156 24.154297 z "
     transform="scale(0.26457812)" />
  <ellipse
     style="opacity:0.179;fill:url(#radialGradient1049);fill-opacity:1;stroke:none;stroke-width:0;stroke-linecap:round;stroke-linejoin:round;stroke-miterlimit:4;stroke-dasharray:none;stroke-opacity:1"
     id="path1033"
     cx="6.5442729"
     cy="9.2573605"
     rx="2.9704716"
     ry="2.2217166" />
  <path
     id="path1080"
     style="fill:url(#radialGradient1088);fill-opacity:1;stroke:none;stroke-width:0.786275;stroke-linecap:square;stroke-miterlimit:4;stroke-dasharray:none;stroke-opacity:1"
     d="m 11.882459,6.3905028 a 4.7890156,4.2271422 0 0 0 -4.755248,4.2271822 4.7890156,4.2271422 0 0 0 4.78877,4.227181 4.7890156,4.2271422 0 0 0 1.777426,-0.302077 l 1.065553,0.719785 c 0.221879,0.156907 0.518097,-0.051 0.445956,-0.312998 l -0.242939,-1.070449 a 4.7890156,4.2271422 0 0 0 1.743151,-3.261442 4.7890156,4.2271422 0 0 0 -4.789147,-4.2271822 4.7890156,4.2271422 0 0 0 -0.03353,0 z" />
  <path
     id="path1090"
     style="fill:url(#radialGradient1098);fill-opacity:1;stroke:none;stroke-width:0.786275;stroke-linecap:square;stroke-miterlimit:4;stroke-dasharray:none;stroke-opacity:1"
     d="m 11.882459,6.3905028 a 4.7890156,4.2271422 0 0 0 -4.755248,4.2271822 4.7890156,4.2271422 0 0 0 4.78877,4.227181 4.7890156,4.2271422 0 0 0 1.777426,-0.302077 l 1.065553,0.719785 c 0.221879,0.156907 0.518097,-0.051 0.445956,-0.312998 l -0.242939,-1.070449 a 4.7890156,4.2271422 0 0 0 1.743151,-3.261442 4.7890156,4.2271422 0 0 0 -4.789147,-4.2271822 4.7890156,4.2271422 0 0 0 -0.03353,0 z" />
</svg>
