<?xml version="1.0" encoding="UTF-8" standalone="no"?>
<svg
   xmlns:dc="http://purl.org/dc/elements/1.1/"
   xmlns:cc="http://creativecommons.org/ns#"
   xmlns:rdf="http://www.w3.org/1999/02/22-rdf-syntax-ns#"
   xmlns:svg="http://www.w3.org/2000/svg"
   xmlns="http://www.w3.org/2000/svg"
   xmlns:xlink="http://www.w3.org/1999/xlink"
   xmlns:sodipodi="http://sodipodi.sourceforge.net/DTD/sodipodi-0.dtd"
   xmlns:inkscape="http://www.inkscape.org/namespaces/inkscape"
   width="64"
   height="64"
   version="1.1"
   viewBox="0 0 16.933 16.933"
   id="svg10"
   sodipodi:docname="text-editor.svg"
   inkscape:version="1.0.2 (e86c870879, 2021-01-15)">
  <metadata
     id="metadata16">
    <rdf:RDF>
      <cc:Work
         rdf:about="">
        <dc:format>image/svg+xml</dc:format>
        <dc:type
           rdf:resource="http://purl.org/dc/dcmitype/StillImage" />
        <dc:title></dc:title>
      </cc:Work>
    </rdf:RDF>
  </metadata>
  <defs
     id="defs14">
    <linearGradient
       inkscape:collect="always"
       xlink:href="#linearGradient2101"
       id="linearGradient2103"
       x1="823.25024"
       y1="345.74591"
       x2="823.25024"
       y2="429.30695"
       gradientUnits="userSpaceOnUse" />
    <linearGradient
       inkscape:collect="always"
       id="linearGradient2101">
      <stop
         style="stop-color:#45e0f8;stop-opacity:1;"
         offset="0"
         id="stop2097" />
      <stop
         style="stop-color:#1116a4;stop-opacity:1"
         offset="1"
         id="stop2099" />
    </linearGradient>
  </defs>
  <sodipodi:namedview
     pagecolor="#ffffff"
     bordercolor="#666666"
     borderopacity="1"
     objecttolerance="10"
     gridtolerance="10"
     guidetolerance="10"
     inkscape:pageopacity="0"
     inkscape:pageshadow="2"
     inkscape:window-width="1920"
     inkscape:window-height="1028"
     id="namedview12"
     showgrid="false"
     inkscape:zoom="10.032077"
     inkscape:cx="39.823702"
     inkscape:cy="42.301037"
     inkscape:window-x="0"
     inkscape:window-y="24"
     inkscape:window-maximized="1"
     inkscape:current-layer="svg10" />
  <path
     d="m15.033 5.0105 1.1225 1.1225c0.31094 0.31093 0.31093 0.81157-1e-6 1.1225l-6.7351 6.7351-2.8063 0.56126 0.56126-2.8063 6.7351-6.7351c0.31094-0.31094 0.81157-0.31094 1.1225-3e-7z"
     fill="#ffffff"
     opacity=".9"
     stroke-linecap="round"
     stroke-linejoin="round"
     stroke-width=".42682"
     style="paint-order:stroke fill markers"
     id="path2" />
  <path
     transform="scale(.26458)"
     d="m17 10v4h-7v1h7v6h-7v1h7v6h-7v1h7v6h-7v1h7v6h-7v1h7v6h-7v1h7v4h1v-4h8l0.19922-1h-8.1992v-6h10.514l1-1h-11.514v-6h17.514l1-1h-18.514v-6h24.516l1-1h-25.516v-6h31.516l0.48438-0.48438v-0.51562h-32v-6h32v-1h-32v-4h-1zm29.486 32-1 1h4.5137v-1h-3.5137zm-7 7-1 1h11.514v-1h-10.514z"
     fill="#ffffff"
     opacity=".1"
     stroke-linecap="round"
     stroke-linejoin="round"
     stroke-width="1.3156"
     style="paint-order:stroke fill markers"
     id="path6" />
  <g
     id="g2166"
     transform="matrix(0.19728051,0,0,0.19728051,-154.40465,-66.803538)">
    <rect
       style="opacity:1;fill:url(#linearGradient2103);fill-opacity:1;stroke:none;stroke-width:0.2;stroke-linecap:round;stroke-linejoin:round;stroke-miterlimit:4;stroke-dasharray:none;stroke-opacity:1"
       id="rect2095"
       width="73.353531"
       height="79.846916"
       x="790.03003"
       y="341.78674"
       rx="17.377319"
       ry="17.377319" />
    <path
       id="path2137-6"
       style="fill:#000080;fill-opacity:0.265372;stroke:none;stroke-width:0.2;stroke-linecap:round;stroke-linejoin:round;stroke-miterlimit:4;stroke-dasharray:none;stroke-opacity:1"
       d="m 802.70875,359.26768 c -1.50504,0 -2.7168,1.21175 -2.7168,2.7168 0,1.50504 1.21176,2.71679 2.7168,2.71679 h 48.00195 c 1.50504,0 2.7168,-1.21175 2.7168,-2.71679 0,-1.50505 -1.21176,-2.7168 -2.7168,-2.7168 z m 0,15.60937 c -1.50504,0 -2.7168,1.21176 -2.7168,2.7168 0,1.50504 1.21176,2.7168 2.7168,2.7168 h 48.00195 c 1.50504,0 2.7168,-1.21176 2.7168,-2.7168 0,-1.50504 -1.21176,-2.7168 -2.7168,-2.7168 z m 0,15.54297 c -1.50504,0 -2.7168,1.21176 -2.7168,2.7168 0,1.50504 1.21176,2.71484 2.7168,2.71484 h 16.99219 c 1.50503,0 2.71679,-1.2098 2.71679,-2.71484 0,-1.50504 -1.21176,-2.7168 -2.71679,-2.7168 z m 28.96289,5.6211 c -1.08137,0 -1.95313,0.8698 -1.95313,1.95117 v 5.82422 c 0,1.08136 0.87176,1.95312 1.95313,1.95312 h 0.93945 c -0.1923,1.51708 -1.23017,2.82141 -2.64062,2.97852 -0.41216,0 -0.46678,0.52145 -0.4375,1.14648 0.0603,0.9837 0.11712,1.95638 0.25781,2.89844 0.31436,1.05618 1.02106,0.87891 1.56641,0.87891 3.4306,0 7.22725,-4.2467 8.28906,-8.87305 0.16894,-0.28912 0.27344,-0.62206 0.27344,-0.98242 v -0.9375 c 0.009,-0.17734 0.0273,-0.35457 0.0273,-0.53125 l -0.0273,0.0117 v -4.36719 c 0,-1.08137 -0.87176,-1.95117 -1.95313,-1.95117 z m 13.33789,0.0918 c -1.08137,0 -1.95312,0.86981 -1.95312,1.95118 v 5.82421 c 0,1.08136 0.87175,1.95313 1.95312,1.95313 h 0.93945 c -0.1923,1.51708 -1.23017,2.8214 -2.64062,2.97852 -0.41216,0 -0.46678,0.52145 -0.4375,1.14648 0.0603,0.9837 0.11712,1.95638 0.25781,2.89844 0.31436,1.05618 1.02106,0.8789 1.56641,0.8789 3.4306,0 7.22725,-4.24669 8.28906,-8.87304 0.16894,-0.28912 0.27344,-0.62207 0.27344,-0.98243 v -0.9375 c 0.009,-0.17734 0.0273,-0.35457 0.0273,-0.53125 l -0.0273,0.0117 v -4.36718 c 0,-1.08137 -0.87176,-1.95118 -1.95313,-1.95118 z" />
    <path
       id="rect2105-7"
       style="fill:#ffffff;fill-opacity:1;stroke:none;stroke-width:0.2;stroke-linecap:round;stroke-linejoin:round;stroke-miterlimit:4;stroke-dasharray:none;stroke-opacity:1"
       d="m 802.70875,358.08456 c -1.50504,0 -2.7168,1.21175 -2.7168,2.7168 0,1.50504 1.21176,2.71679 2.7168,2.71679 h 48.00195 c 1.50504,0 2.7168,-1.21175 2.7168,-2.71679 0,-1.50505 -1.21176,-2.7168 -2.7168,-2.7168 z m 0,15.60937 c -1.50504,0 -2.7168,1.21176 -2.7168,2.7168 0,1.50504 1.21176,2.7168 2.7168,2.7168 h 48.00195 c 1.50504,0 2.7168,-1.21176 2.7168,-2.7168 0,-1.50504 -1.21176,-2.7168 -2.7168,-2.7168 z m 0,15.54297 c -1.50504,0 -2.7168,1.21176 -2.7168,2.7168 0,1.50504 1.21176,2.71484 2.7168,2.71484 h 16.99219 c 1.50503,0 2.71679,-1.2098 2.71679,-2.71484 0,-1.50504 -1.21176,-2.7168 -2.71679,-2.7168 z m 28.96289,5.6211 c -1.08137,0 -1.95313,0.8698 -1.95313,1.95117 v 5.82422 c 0,1.08136 0.87176,1.95312 1.95313,1.95312 h 0.93945 c -0.1923,1.51708 -1.23017,2.82141 -2.64062,2.97852 -0.41216,0 -0.46678,0.52145 -0.4375,1.14648 0.0603,0.9837 0.11712,1.95638 0.25781,2.89844 0.31436,1.05618 1.02106,0.87891 1.56641,0.87891 3.4306,0 7.22725,-4.2467 8.28906,-8.87305 0.16894,-0.28912 0.27344,-0.62206 0.27344,-0.98242 v -0.9375 c 0.009,-0.17734 0.0273,-0.35457 0.0273,-0.53125 l -0.0273,0.0117 v -4.36719 c 0,-1.08137 -0.87176,-1.95117 -1.95313,-1.95117 z m 13.33789,0.0918 c -1.08137,0 -1.95312,0.86981 -1.95312,1.95118 v 5.82421 c 0,1.08136 0.87175,1.95313 1.95312,1.95313 h 0.93945 c -0.1923,1.51708 -1.23017,2.8214 -2.64062,2.97852 -0.41216,0 -0.46678,0.52145 -0.4375,1.14648 0.0603,0.9837 0.11712,1.95638 0.25781,2.89844 0.31436,1.05618 1.02106,0.8789 1.56641,0.8789 3.4306,0 7.22725,-4.24669 8.28906,-8.87304 0.16894,-0.28912 0.27344,-0.62207 0.27344,-0.98243 v -0.9375 c 0.009,-0.17734 0.0273,-0.35457 0.0273,-0.53125 l -0.0273,0.0117 v -4.36718 c 0,-1.08137 -0.87176,-1.95118 -1.95313,-1.95118 z" />
  </g>
</svg>
