<?xml version="1.0" encoding="UTF-8" standalone="no"?>
<svg
   xmlns:dc="http://purl.org/dc/elements/1.1/"
   xmlns:cc="http://creativecommons.org/ns#"
   xmlns:rdf="http://www.w3.org/1999/02/22-rdf-syntax-ns#"
   xmlns:svg="http://www.w3.org/2000/svg"
   xmlns="http://www.w3.org/2000/svg"
   xmlns:xlink="http://www.w3.org/1999/xlink"
   xmlns:sodipodi="http://sodipodi.sourceforge.net/DTD/sodipodi-0.dtd"
   xmlns:inkscape="http://www.inkscape.org/namespaces/inkscape"
   width="64"
   height="64"
   version="1.1"
   viewBox="0 0 16.933 16.933"
   id="svg36"
   sodipodi:docname="theme-config.svg"
   inkscape:version="1.0.2 (e86c870879, 2021-01-15)">
  <metadata
     id="metadata40">
    <rdf:RDF>
      <cc:Work
         rdf:about="">
        <dc:format>image/svg+xml</dc:format>
        <dc:type
           rdf:resource="http://purl.org/dc/dcmitype/StillImage" />
      </cc:Work>
    </rdf:RDF>
  </metadata>
  <sodipodi:namedview
     pagecolor="#ffffff"
     bordercolor="#666666"
     borderopacity="1"
     objecttolerance="10"
     gridtolerance="10"
     guidetolerance="10"
     inkscape:pageopacity="0"
     inkscape:pageshadow="2"
     inkscape:window-width="1920"
     inkscape:window-height="1024"
     id="namedview38"
     showgrid="false"
     inkscape:zoom="7.09375"
     inkscape:cx="29.080433"
     inkscape:cy="35.211524"
     inkscape:window-x="0"
     inkscape:window-y="24"
     inkscape:window-maximized="1"
     inkscape:current-layer="svg36" />
  <defs
     id="defs18">
    <clipPath
       id="clipPath4">
      <path
         d="m6.973 11.565c-0.338 0-0.676 0.13-0.935 0.389l-2.334 2.333v0.265h3.477l0.728-0.727a1.32 1.32 0 0 0 0-1.871 1.318 1.318 0 0 0-0.936-0.389z"
         fill="#ff4b20"
         opacity=".75"
         style="paint-order:stroke markers fill"
         id="path2" />
    </clipPath>
    <clipPath
       id="clipPath8">
      <path
         d="m10.621 10.241c-0.338 0-0.676 0.13-0.935 0.389l-3.923 3.922h3.742l2.051-2.051a1.32 1.32 0 0 0 0-1.871 1.318 1.318 0 0 0-0.935-0.389z"
         fill="#70adff"
         style="paint-order:stroke markers fill"
         id="path6" />
    </clipPath>
    <clipPath
       id="clipPath12">
      <path
         d="m4.271 12.093c-0.195 0-0.387 0.048-0.567 0.134v2.325h1.303l0.2-0.2a1.32 1.32 0 0 0 0-1.87 1.318 1.318 0 0 0-0.936-0.389z"
         fill="#fff066"
         style="paint-order:stroke markers fill"
         id="path10" />
    </clipPath>
    <clipPath
       id="clipPath16">
      <path
         d="m11.169 12.112c-0.338 0-0.676 0.13-0.936 0.389l-2.051 2.051h3.742l0.18-0.18a1.32 1.32 0 0 0 0-1.871 1.318 1.318 0 0 0-0.935-0.39z"
         fill="#85ffbc"
         style="paint-order:stroke markers fill"
         id="path14" />
    </clipPath>
    <linearGradient
       inkscape:collect="always"
       xlink:href="#linearGradient866"
       id="linearGradient868"
       x1="552.20013"
       y1="125.5881"
       x2="552.20013"
       y2="106.21632"
       gradientUnits="userSpaceOnUse"
       gradientTransform="matrix(0.21817845,0,0,0.21817845,-119.79391,-17.079101)" />
    <linearGradient
       inkscape:collect="always"
       id="linearGradient866">
      <stop
         style="stop-color:#ea370f;stop-opacity:1"
         offset="0"
         id="stop862" />
      <stop
         style="stop-color:#c96b0d;stop-opacity:1"
         offset="1"
         id="stop864" />
    </linearGradient>
    <linearGradient
       inkscape:collect="always"
       xlink:href="#linearGradient856"
       id="linearGradient858"
       x1="557.06531"
       y1="168.86458"
       x2="557.06531"
       y2="122.10712"
       gradientUnits="userSpaceOnUse"
       gradientTransform="matrix(0.15427546,-0.15427546,0.15427546,0.15427546,-96.783831,72.630338)" />
    <linearGradient
       inkscape:collect="always"
       id="linearGradient856">
      <stop
         style="stop-color:#3aaae2;stop-opacity:1;"
         offset="0"
         id="stop852" />
      <stop
         style="stop-color:#9721de;stop-opacity:1"
         offset="1"
         id="stop854" />
    </linearGradient>
    <linearGradient
       inkscape:collect="always"
       xlink:href="#linearGradient876"
       id="linearGradient880"
       gradientUnits="userSpaceOnUse"
       x1="551.58514"
       y1="118.38535"
       x2="551.58514"
       y2="142.34999"
       gradientTransform="matrix(0.15427546,-0.15427546,0.15427546,0.15427546,-96.783831,72.630338)" />
    <linearGradient
       inkscape:collect="always"
       id="linearGradient876">
      <stop
         style="stop-color:#eb7d4b;stop-opacity:1"
         offset="0"
         id="stop872" />
      <stop
         style="stop-color:#e97744;stop-opacity:0.88627451;"
         offset="0.48697311"
         id="stop882" />
      <stop
         style="stop-color:#df744f;stop-opacity:0.81568627;"
         offset="0.5431121"
         id="stop886" />
      <stop
         style="stop-color:#d87257;stop-opacity:0.76862745;"
         offset="0.59764665"
         id="stop888" />
      <stop
         style="stop-color:#715cdb;stop-opacity:0"
         offset="1"
         id="stop874" />
    </linearGradient>
    <linearGradient
       inkscape:collect="always"
       xlink:href="#linearGradient896"
       id="linearGradient898"
       x1="555.88135"
       y1="154.70644"
       x2="565.01794"
       y2="154.70644"
       gradientUnits="userSpaceOnUse"
       gradientTransform="matrix(0.15427546,-0.15427546,0.15427546,0.15427546,-103.04455,77.250133)" />
    <linearGradient
       inkscape:collect="always"
       id="linearGradient896">
      <stop
         style="stop-color:#6e5ee0;stop-opacity:1;"
         offset="0"
         id="stop892" />
      <stop
         style="stop-color:#6e5ee0;stop-opacity:0;"
         offset="1"
         id="stop894" />
    </linearGradient>
    <linearGradient
       inkscape:collect="always"
       xlink:href="#linearGradient896"
       id="linearGradient902"
       gradientUnits="userSpaceOnUse"
       gradientTransform="matrix(-0.15427546,0.15427546,0.15427546,0.15427546,77.240963,-103.03538)"
       x1="555.88135"
       y1="154.70644"
       x2="565.01794"
       y2="154.70644" />
  </defs>
  <rect
     style="fill:url(#linearGradient868);fill-opacity:1;stroke-width:0.0428797;stroke-linecap:round;stroke-linejoin:round"
     id="rect850"
     width="9.83389"
     height="7.4103417"
     x="-4.92343"
     y="5.3819699"
     rx="0.68327159"
     ry="0.68327159"
     transform="rotate(-45)" />
  <path
     id="path860"
     style="fill:url(#linearGradient858);fill-opacity:1;stroke-width:0.0428797;stroke-linecap:round;stroke-linejoin:round"
     d="m 2.7542745,9.4476069 c -0.4497705,0.449769 -0.4497683,1.1737351 2.2e-6,1.6235071 l 3.1816288,3.18163 c 0.4497705,0.449769 1.173739,0.449771 1.6235073,0 l 1.0497984,-1.049796 c 0.6623177,-0.662317 1.5896398,-0.509953 2.1194558,0.01986 0.804962,0.804963 1.374177,1.966863 2.01241,2.621077 0.854327,0.854475 2.239621,0.854475 3.093947,0 0.854192,-0.854377 0.854057,-2.239437 -2.19e-4,-3.093645 -0.646223,-0.646223 -1.816113,-1.207448 -2.621076,-2.012413 -0.590184,-0.565994 -0.664023,-1.4752951 -0.01986,-2.1194551 l 1.049799,-1.0497992 c 0.44977,-0.4497705 0.449768,-1.1737367 -2e-6,-1.6235072 L 11.062039,2.7634318 C 10.612271,2.3136613 9.888302,2.3136591 9.4385314,2.7634297 Z"
     sodipodi:nodetypes="sssssccscccsssss" />
  <path
     id="rect837"
     style="fill:url(#linearGradient880);fill-opacity:1;stroke-width:0.0428797;stroke-linecap:round;stroke-linejoin:round"
     d="m 2.7542745,9.4476069 c -0.4497705,0.449769 -0.4497683,1.1737351 2.2e-6,1.6235071 l 3.1816288,3.18163 c 0.4497705,0.449769 1.173739,0.449771 1.6235073,0 l 1.0497984,-1.049796 c 0.6623177,-0.662317 1.5896398,-0.509953 2.1194558,0.01986 0.804962,0.804963 1.374177,1.966863 2.01241,2.621077 0.854327,0.854475 2.239621,0.854475 3.093947,0 0.854192,-0.854377 0.854057,-2.239437 -2.19e-4,-3.093645 -0.646223,-0.646223 -1.816113,-1.207448 -2.621076,-2.012413 -0.590184,-0.565994 -0.664023,-1.4752951 -0.01986,-2.1194551 l 1.049799,-1.0497992 c 0.44977,-0.4497705 0.449768,-1.1737367 -2e-6,-1.6235072 L 11.062039,2.7634318 C 10.612271,2.3136613 9.888302,2.3136591 9.4385314,2.7634297 Z"
     sodipodi:nodetypes="sssssccscccsssss" />
  <path
     id="path890"
     style="fill:url(#linearGradient898);fill-opacity:1;stroke-width:0.0428797;stroke-linecap:round;stroke-linejoin:round"
     d="m 2.7542745,9.4476069 c -0.4497705,0.449769 -0.4497683,1.1737351 2.2e-6,1.6235071 l 3.1816288,3.18163 c 0.4497705,0.449769 1.173739,0.449771 1.6235073,0 l 1.0497984,-1.049796 c 0.6623177,-0.662317 1.5896398,-0.509953 2.1194558,0.01986 0.804962,0.804963 1.374177,1.966863 2.01241,2.621077 0.854327,0.854475 2.239621,0.854475 3.093947,0 0.854192,-0.854377 0.854057,-2.239437 -2.19e-4,-3.093645 -0.646223,-0.646223 -1.816113,-1.207448 -2.621076,-2.012413 -0.590184,-0.565994 -0.664023,-1.4752951 -0.01986,-2.1194551 l 1.049799,-1.0497992 c 0.44977,-0.4497705 0.449768,-1.1737367 -2e-6,-1.6235072 L 11.062039,2.7634318 C 10.612271,2.3136613 9.888302,2.3136591 9.4385314,2.7634297 Z"
     sodipodi:nodetypes="sssssccscccsssss" />
  <path
     id="path900"
     style="fill:url(#linearGradient902);fill-opacity:1;stroke-width:0.0428797;stroke-linecap:round;stroke-linejoin:round"
     d="m 9.4384399,2.7634384 c 0.4497705,-0.4497705 1.1737391,-0.4497683 1.6235071,2.2e-6 l 3.18163,3.1816309 c 0.449771,0.4497705 0.449773,1.1737368 3e-6,1.6235073 l -1.049797,1.0497961 c -0.662319,0.662317 -0.509952,1.5896391 0.01986,2.1194551 0.804962,0.804966 1.966863,1.374179 2.621076,2.012413 0.854474,0.854325 0.854474,2.239622 -3e-6,3.093945 -0.854374,0.854192 -2.239433,0.854057 -3.093643,-2.19e-4 C 12.094845,15.197747 11.53362,14.027856 10.728658,13.222894 10.162664,12.632707 9.2533612,12.55887 8.6092024,13.203043 l -1.0497983,1.049796 c -0.4497684,0.449771 -1.1737369,0.449768 -1.6235074,0 L 2.754268,11.071205 C 2.3044975,10.621434 2.3044954,9.8974679 2.7542658,9.4476979 Z"
     sodipodi:nodetypes="sssssccscccsssss" />
</svg>
