<?xml version="1.0" encoding="UTF-8" standalone="no"?>
<svg
   xmlns:dc="http://purl.org/dc/elements/1.1/"
   xmlns:cc="http://creativecommons.org/ns#"
   xmlns:rdf="http://www.w3.org/1999/02/22-rdf-syntax-ns#"
   xmlns:svg="http://www.w3.org/2000/svg"
   xmlns="http://www.w3.org/2000/svg"
   xmlns:xlink="http://www.w3.org/1999/xlink"
   xmlns:sodipodi="http://sodipodi.sourceforge.net/DTD/sodipodi-0.dtd"
   xmlns:inkscape="http://www.inkscape.org/namespaces/inkscape"
   width="64"
   height="64"
   viewBox="0 0 16.933333 16.933334"
   version="1.1"
   id="svg951"
   inkscape:version="1.0.2 (e86c870879, 2021-01-15)"
   sodipodi:docname="xine.svg">
  <defs
     id="defs945">
    <linearGradient
       inkscape:collect="always"
       id="linearGradient931">
      <stop
         style="stop-color:#183268;stop-opacity:1"
         offset="0"
         id="stop927" />
      <stop
         style="stop-color:#314877;stop-opacity:0.8745098;"
         offset="0.60971898"
         id="stop935" />
      <stop
         style="stop-color:#e7e7e7;stop-opacity:0;"
         offset="1"
         id="stop929" />
    </linearGradient>
    <linearGradient
       inkscape:collect="always"
       id="linearGradient903">
      <stop
         style="stop-color:#183268;stop-opacity:1"
         offset="0"
         id="stop899" />
      <stop
         style="stop-color:#183268;stop-opacity:0.99215686;"
         offset="0.45896968"
         id="stop874" />
      <stop
         style="stop-color:#183269;stop-opacity:0.96862745;"
         offset="0.48186174"
         id="stop876" />
      <stop
         style="stop-color:#183269;stop-opacity:0.94509804;"
         offset="0.49596879"
         id="stop888" />
      <stop
         style="stop-color:#18336c;stop-opacity:0.8627451;"
         offset="0.51690036"
         id="stop900" />
      <stop
         style="stop-color:#183570;stop-opacity:0.78039216;"
         offset="0.54088008"
         id="stop904" />
      <stop
         style="stop-color:#183773;stop-opacity:0.73333333;"
         offset="0.5546819"
         id="stop902" />
      <stop
         style="stop-color:#193f80;stop-opacity:0.45098039;"
         offset="0.61414695"
         id="stop906" />
      <stop
         style="stop-color:#1a4284;stop-opacity:0.36862745;"
         offset="0.62387437"
         id="stop890" />
      <stop
         style="stop-color:#1b488d;stop-opacity:0.18039216;"
         offset="0.68274617"
         id="stop910" />
      <stop
         style="stop-color:#1c498e;stop-opacity:0.17647059;"
         offset="0.70258826"
         id="stop919" />
      <stop
         style="stop-color:#1d4b91;stop-opacity:0.1254902;"
         offset="0.71474224"
         id="stop917" />
      <stop
         style="stop-color:#1e4d93;stop-opacity:0.08160959"
         offset="0.73049557"
         id="stop915" />
      <stop
         style="stop-color:#2e89f1;stop-opacity:0"
         offset="1"
         id="stop901" />
    </linearGradient>
    <linearGradient
       inkscape:collect="always"
       id="linearGradient887">
      <stop
         style="stop-color:#0ca4f9;stop-opacity:1"
         offset="0"
         id="stop883" />
      <stop
         style="stop-color:#2e89f1;stop-opacity:1"
         offset="1"
         id="stop885" />
    </linearGradient>
    <linearGradient
       inkscape:collect="always"
       xlink:href="#linearGradient887"
       id="linearGradient889"
       x1="-45.290127"
       y1="47.877674"
       x2="-69.193512"
       y2="6.4757967"
       gradientUnits="userSpaceOnUse" />
    <radialGradient
       inkscape:collect="always"
       xlink:href="#linearGradient931"
       id="radialGradient933"
       cx="-13.459206"
       cy="7.131588"
       fx="-13.459206"
       fy="7.131588"
       r="5.8970559"
       gradientTransform="matrix(1,0,0,0.93695018,0,0.37723294)"
       gradientUnits="userSpaceOnUse" />
    <radialGradient
       inkscape:collect="always"
       xlink:href="#linearGradient903"
       id="radialGradient868"
       gradientUnits="userSpaceOnUse"
       gradientTransform="matrix(1,0,0,0.99996722,0,8.8557368e-4)"
       cx="-50.699219"
       cy="27.016602"
       fx="-50.699219"
       fy="27.016602"
       r="29.802734" />
  </defs>
  <sodipodi:namedview
     id="base"
     pagecolor="#ffffff"
     bordercolor="#666666"
     borderopacity="1.0"
     inkscape:pageopacity="0.0"
     inkscape:pageshadow="2"
     inkscape:zoom="2.8"
     inkscape:cx="-61.699308"
     inkscape:cy="18.115215"
     inkscape:document-units="mm"
     inkscape:current-layer="layer1"
     inkscape:document-rotation="0"
     showgrid="false"
     units="px"
     inkscape:window-width="1920"
     inkscape:window-height="1024"
     inkscape:window-x="0"
     inkscape:window-y="24"
     inkscape:window-maximized="1" />
  <metadata
     id="metadata948">
    <rdf:RDF>
      <cc:Work
         rdf:about="">
        <dc:format>image/svg+xml</dc:format>
        <dc:type
           rdf:resource="http://purl.org/dc/dcmitype/StillImage" />
        <dc:title />
      </cc:Work>
    </rdf:RDF>
  </metadata>
  <g
     inkscape:label="Capa 1"
     inkscape:groupmode="layer"
     id="layer1">
    <g
       id="g973"
       transform="translate(21.691469,1.1210794)">
      <g
         id="g959"
         style="opacity:0.491637">
        <path
           id="path944"
           style="opacity:1;fill:#183268;fill-opacity:0.0573203;stroke-width:0.0470344;stroke-linecap:round;stroke-linejoin:round"
           d="m -13.395906,-0.53349917 c -4.354784,-1.2391e-4 -7.885145,3.53000577 -7.885307,7.88478987 -1.24e-4,4.3549863 3.530321,7.8854303 7.885307,7.8853073 4.3549855,1.24e-4 7.8854302,-3.530321 7.8853063,-7.8853073 -1.614e-4,-4.3547841 -3.5305227,-7.88491394 -7.8853063,-7.88478987 z m 0.0062,1.1947591 c 0.0036,-9.9e-6 0.0072,-9.9e-6 0.01085,0 1.096967,-2.1162e-4 1.986368,0.88895767 1.986442,1.98592517 -0.457391,2.9238532 -3.907817,2.1371531 -3.972367,0 5.7e-5,-1.092542 0.882548,-1.97988185 1.975073,-1.98592517 z m -3.926893,7.07863757 c 0.0036,-9.8e-6 0.0072,-9.8e-6 0.01085,0 1.096766,7.38e-5 1.985852,0.8891595 1.985925,1.9859252 -7.3e-5,1.0967663 -0.889159,1.9858523 -1.985925,1.9859253 -1.096766,-7.3e-5 -1.985851,-0.889159 -1.985925,-1.9859253 5.7e-5,-1.0925421 0.882548,-1.9798819 1.975073,-1.9859252 z m 7.8222611,0 c 0.00362,-9.8e-6 0.00723,-9.8e-6 0.010853,0 1.0967657,7.38e-5 1.9858514,0.8891595 1.9859252,1.9859252 -7.38e-5,1.0967663 -0.8891595,1.9858523 -1.9859252,1.9859253 -1.0967651,-7.3e-5 -1.9858511,-0.889159 -1.9859251,-1.9859253 5.7e-5,-1.0925421 0.882548,-1.9798819 1.9750721,-1.9859252 z"
           sodipodi:nodetypes="cccccccccccccccccccccc" />
        <path
           id="path946"
           style="opacity:1;fill:#183268;fill-opacity:0.0573203;stroke-width:0.0470344;stroke-linecap:round;stroke-linejoin:round"
           d="m -13.298808,-0.39810823 c -4.354784,-1.2391e-4 -7.885145,3.53000573 -7.885307,7.88478983 -1.24e-4,4.3549864 3.530321,7.8854304 7.885307,7.8853074 4.3549857,1.24e-4 7.8854304,-3.530321 7.8853065,-7.8853074 -1.614e-4,-4.3547841 -3.5305227,-7.8849139 -7.8853065,-7.88478983 z m 0.0062,1.1947591 c 0.0036,-9.9e-6 0.0072,-9.9e-6 0.01085,0 1.096967,-2.1162e-4 1.986368,0.88895763 1.986442,1.98592513 -0.457391,2.9238532 -3.907817,2.1371531 -3.972367,0 5.7e-5,-1.092542 0.882548,-1.97988181 1.975073,-1.98592513 z m -3.926893,7.07863753 c 0.0036,-9.8e-6 0.0072,-9.8e-6 0.01085,0 1.096766,7.38e-5 1.985852,0.8891595 1.985925,1.9859252 -7.3e-5,1.0967664 -0.889159,1.9858524 -1.985925,1.9859254 -1.096766,-7.3e-5 -1.985851,-0.889159 -1.985925,-1.9859254 5.7e-5,-1.0925421 0.882548,-1.9798819 1.975073,-1.9859252 z m 7.8222613,0 c 0.00362,-9.8e-6 0.00723,-9.8e-6 0.010853,0 1.0967657,7.38e-5 1.9858514,0.8891595 1.9859252,1.9859252 -7.38e-5,1.0967664 -0.8891595,1.9858524 -1.9859252,1.9859254 -1.0967653,-7.3e-5 -1.9858513,-0.889159 -1.9859253,-1.9859254 5.7e-5,-1.0925421 0.882548,-1.9798819 1.9750723,-1.9859252 z"
           sodipodi:nodetypes="cccccccccccccccccccccc" />
        <path
           id="path948"
           style="opacity:1;fill:#183268;fill-opacity:0.0573203;stroke-width:0.0470344;stroke-linecap:round;stroke-linejoin:round"
           d="m -13.179382,-0.26017274 c -4.354784,-1.2391e-4 -7.885145,3.53000574 -7.885307,7.88478984 -1.24e-4,4.3549859 3.530321,7.8854299 7.885307,7.8853069 4.3549857,1.24e-4 7.8854304,-3.530321 7.8853065,-7.8853069 -1.614e-4,-4.3547841 -3.5305227,-7.88491391 -7.8853065,-7.88478984 z m 0.0062,1.1947591 c 0.0036,-9.9e-6 0.0072,-9.9e-6 0.01085,0 1.096967,-2.1162e-4 1.986368,0.88895764 1.986442,1.98592514 -0.457391,2.9238532 -3.907817,2.1371531 -3.972367,0 5.7e-5,-1.092542 0.882548,-1.97988182 1.975073,-1.98592514 z m -3.926893,7.07863754 c 0.0036,-9.8e-6 0.0072,-9.8e-6 0.01085,0 1.096766,7.38e-5 1.985852,0.8891595 1.985925,1.9859252 -7.3e-5,1.0967659 -0.889159,1.9858519 -1.985925,1.9859249 -1.096766,-7.3e-5 -1.985851,-0.889159 -1.985925,-1.9859249 5.7e-5,-1.0925421 0.882548,-1.9798819 1.975073,-1.9859252 z m 7.8222613,0 c 0.00362,-9.8e-6 0.00723,-9.8e-6 0.010853,0 1.0967657,7.38e-5 1.9858514,0.8891595 1.9859252,1.9859252 -7.38e-5,1.0967659 -0.8891595,1.9858519 -1.9859252,1.9859249 -1.0967653,-7.3e-5 -1.9858513,-0.889159 -1.9859253,-1.9859249 5.7e-5,-1.0925421 0.882548,-1.9798819 1.9750723,-1.9859252 z"
           sodipodi:nodetypes="cccccccccccccccccccccc" />
        <path
           id="path950"
           style="opacity:1;fill:#183268;fill-opacity:0.0573203;stroke-width:0.0470344;stroke-linecap:round;stroke-linejoin:round"
           d="m -13.093387,-0.10541145 c -4.354784,-1.2391e-4 -7.885145,3.53000575 -7.885307,7.88478985 -1.24e-4,4.3549856 3.530321,7.8854296 7.885307,7.8853066 4.354986,1.24e-4 7.8854307,-3.530321 7.8853068,-7.8853066 -1.614e-4,-4.3547841 -3.5305227,-7.88491392 -7.8853068,-7.88478985 z m 0.0062,1.19475915 c 0.0036,-9.9e-6 0.0072,-9.9e-6 0.01085,0 1.096967,-2.117e-4 1.986368,0.8889576 1.986442,1.9859251 -0.457391,2.9238532 -3.907817,2.1371531 -3.972367,0 5.7e-5,-1.092542 0.882548,-1.9798818 1.975073,-1.9859251 z m -3.926893,7.0786375 c 0.0036,-9.8e-6 0.0072,-9.8e-6 0.01085,0 1.096766,7.38e-5 1.985852,0.8891595 1.985925,1.9859248 -7.3e-5,1.096766 -0.889159,1.985852 -1.985925,1.985925 -1.096766,-7.3e-5 -1.985851,-0.889159 -1.985925,-1.985925 5.7e-5,-1.0925417 0.882548,-1.9798815 1.975073,-1.9859248 z m 7.8222616,0 c 0.00362,-9.8e-6 0.00723,-9.8e-6 0.010853,0 1.0967657,7.38e-5 1.9858514,0.8891595 1.9859252,1.9859248 -7.38e-5,1.096766 -0.8891595,1.985852 -1.9859252,1.985925 -1.0967656,-7.3e-5 -1.9858516,-0.889159 -1.9859256,-1.985925 5.7e-5,-1.0925417 0.882548,-1.9798815 1.9750726,-1.9859248 z"
           sodipodi:nodetypes="cccccccccccccccccccccc" />
        <path
           id="path952"
           style="opacity:1;fill:#183268;fill-opacity:0.0573203;stroke-width:0.0470344;stroke-linecap:round;stroke-linejoin:round"
           d="m -12.986118,0.01438582 c -4.354784,-1.2391e-4 -7.885145,3.53000578 -7.885307,7.88478988 -1.24e-4,4.3549853 3.530321,7.8854293 7.885307,7.8853063 4.3549861,1.24e-4 7.8854308,-3.530321 7.8853069,-7.8853063 -1.614e-4,-4.3547841 -3.5305227,-7.88491395 -7.8853069,-7.88478988 z m 0.0062,1.19475918 c 0.0036,-9.9e-6 0.0072,-9.9e-6 0.01085,0 1.096967,-2.117e-4 1.986368,0.8889576 1.986442,1.9859251 -0.457391,2.9238532 -3.907817,2.1371531 -3.972367,0 5.7e-5,-1.092542 0.882548,-1.9798818 1.975073,-1.9859251 z m -3.926893,7.0786375 c 0.0036,-9.8e-6 0.0072,-9.8e-6 0.01085,0 1.096766,7.38e-5 1.985852,0.8891595 1.985925,1.9859245 -7.3e-5,1.096766 -0.889159,1.985852 -1.985925,1.985925 -1.096766,-7.3e-5 -1.985851,-0.889159 -1.985925,-1.985925 5.7e-5,-1.0925414 0.882548,-1.9798812 1.975073,-1.9859245 z m 7.8222617,0 c 0.00362,-9.8e-6 0.00723,-9.8e-6 0.010853,0 1.0967657,7.38e-5 1.9858514,0.8891595 1.9859252,1.9859245 -7.38e-5,1.096766 -0.8891595,1.985852 -1.9859252,1.985925 -1.0967657,-7.3e-5 -1.9858517,-0.889159 -1.9859257,-1.985925 5.7e-5,-1.0925414 0.882548,-1.9798812 1.9750727,-1.9859245 z"
           sodipodi:nodetypes="cccccccccccccccccccccc" />
      </g>
      <path
         id="path871"
         style="fill:url(#radialGradient933);fill-opacity:1;stroke-width:0.0519999;stroke-linecap:round;stroke-linejoin:round"
         d="m -13.407966,0.45785319 a 1.986059,1.986059 0 0 0 -1.975073,1.98592531 1.986059,1.986059 0 0 0 1.985925,1.9864421 1.986059,1.986059 0 0 0 1.986442,-1.9864421 1.986059,1.986059 0 0 0 -1.986442,-1.98592531 1.986059,1.986059 0 0 0 -0.01085,0 z m -3.926892,7.07863761 a 1.986059,1.986059 0 0 0 -1.975073,1.9859254 1.986059,1.986059 0 0 0 1.985925,1.9859248 1.986059,1.986059 0 0 0 1.985925,-1.9859248 1.986059,1.986059 0 0 0 -1.985925,-1.9859254 1.986059,1.986059 0 0 0 -0.01085,0 z m 7.8222615,0 a 1.986059,1.986059 0 0 0 -1.9750735,1.9859254 1.986059,1.986059 0 0 0 1.9859257,1.9859248 1.986059,1.986059 0 0 0 1.9859251,-1.9859248 1.986059,1.986059 0 0 0 -1.9859251,-1.9859254 1.986059,1.986059 0 0 0 -0.010852,0 z" />
      <circle
         style="fill:#183268;fill-opacity:1;stroke-width:0.0567777;stroke-linecap:round;stroke-linejoin:round"
         id="path881"
         cx="-13.414168"
         cy="7.1481423"
         r="4.5961671" />
      <path
         id="path861"
         style="opacity:1;fill:url(#linearGradient889);fill-opacity:1;stroke-width:0.177768;stroke-linecap:round;stroke-linejoin:round"
         d="M -50.699219,-2.7851562 A 29.801886,29.801886 0 0 0 -80.501953,27.015625 29.801886,29.801886 0 0 0 -50.699219,56.818359 29.801886,29.801886 0 0 0 -20.896484,27.015625 29.801886,29.801886 0 0 0 -50.699219,-2.7851562 Z m 0.02344,4.515625 a 7.5063649,7.5063649 0 0 1 0.04102,0 7.5063649,7.5063649 0 0 1 7.507813,7.5058593 7.5063649,7.5063649 0 0 1 -7.507813,7.5078129 7.5063649,7.5063649 0 0 1 -7.505859,-7.5078129 7.5063649,7.5063649 0 0 1 7.464844,-7.5058593 z M -65.517578,28.484375 a 7.5063649,7.5063649 0 0 1 0.04102,0 7.5063649,7.5063649 0 0 1 7.505859,7.505859 7.5063649,7.5063649 0 0 1 -7.505859,7.50586 7.5063649,7.5063649 0 0 1 -7.50586,-7.50586 7.5063649,7.5063649 0 0 1 7.464844,-7.505859 z m 29.564453,0 a 7.5063649,7.5063649 0 0 1 0.04102,0 7.5063649,7.5063649 0 0 1 7.505859,7.505859 7.5063649,7.5063649 0 0 1 -7.505859,7.50586 7.5063649,7.5063649 0 0 1 -7.50586,-7.50586 7.5063649,7.5063649 0 0 1 7.464844,-7.505859 z"
         transform="scale(0.26458333)" />
      <path
         id="path893"
         style="opacity:0.677438;fill:url(#radialGradient868);fill-opacity:1;stroke-width:0.177768;stroke-linecap:round;stroke-linejoin:round"
         d="m -50.699219,-2.7851562 c -16.459027,-4.683e-4 -29.802124,13.3417542 -29.802734,29.8007812 -4.68e-4,16.459789 13.342945,29.803202 29.802734,29.802734 16.45979,4.69e-4 29.803203,-13.342944 29.802735,-29.802734 -6.1e-4,-16.459027 -13.343708,-29.8012501 -29.802735,-29.8007812 z m 0.02344,4.515625 c 0.01367,-3.74e-5 0.02734,-3.74e-5 0.04102,0 4.146019,-7.998e-4 7.507534,3.3598403 7.507813,7.5058593 -1.728722,11.0507839 -14.769703,8.0774289 -15.013672,0 2.15e-4,-4.1292927 3.335614,-7.4830184 7.464844,-7.5058593 z M -65.517578,28.484375 c 0.01367,-3.7e-5 0.02734,-3.7e-5 0.04102,0 4.145256,2.79e-4 7.50558,3.360603 7.505859,7.505859 -2.79e-4,4.145256 -3.360603,7.505581 -7.505859,7.50586 -4.145257,-2.79e-4 -7.505581,-3.360603 -7.50586,-7.50586 2.15e-4,-4.129293 3.335615,-7.483018 7.464844,-7.505859 z m 29.564453,0 c 0.01367,-3.7e-5 0.02734,-3.7e-5 0.04102,0 4.145256,2.79e-4 7.50558,3.360603 7.505859,7.505859 -2.79e-4,4.145256 -3.360603,7.505581 -7.505859,7.50586 -4.145257,-2.79e-4 -7.505581,-3.360603 -7.50586,-7.50586 2.15e-4,-4.129293 3.335615,-7.483018 7.464844,-7.505859 z"
         sodipodi:nodetypes="cccccccccccccccccccccc"
         transform="scale(0.26458333)" />
      <circle
         style="opacity:1;fill:#f9f9f9;fill-opacity:1;stroke-width:0.0550735;stroke-linecap:round;stroke-linejoin:round"
         id="path891"
         cx="-13.414168"
         cy="7.1481423"
         r="1.8019372" />
      <path
         id="path939"
         style="opacity:1;fill:#ddf2fe;fill-opacity:0.368149;stroke-width:0.177768;stroke-linecap:round;stroke-linejoin:round"
         d="M -50.699219,-2.7851562 A 29.801886,29.801886 0 0 0 -80.501953,27.015625 29.801886,29.801886 0 0 0 -76.298828,42.277344 29.801885,29.801885 0 0 1 -80,27.892578 29.801885,29.801885 0 0 1 -50.197266,-1.9082031 29.801885,29.801885 0 0 1 -24.597656,12.632812 29.801886,29.801886 0 0 0 -50.699219,-2.7851562 Z m 6.8125,8.7324218 a 7.5063648,7.5063648 0 0 1 0.759766,3.2890625 7.5063648,7.5063648 0 0 1 -7.507813,7.5078129 7.5063648,7.5063648 0 0 1 -6.242187,-3.339844 7.5063647,7.5063647 0 0 0 6.744141,4.216797 7.5063647,7.5063647 0 0 0 7.507812,-7.507813 7.5063647,7.5063647 0 0 0 -1.261719,-4.1660154 z M -58.728516,32.703125 a 7.5063648,7.5063648 0 0 1 0.757813,3.287109 7.5063648,7.5063648 0 0 1 -7.505859,7.50586 7.5063648,7.5063648 0 0 1 -6.242188,-3.339844 7.5063647,7.5063647 0 0 0 6.744141,4.216797 7.5063647,7.5063647 0 0 0 7.505859,-7.505859 7.5063647,7.5063647 0 0 0 -1.259766,-4.164063 z m 29.564454,0 a 7.5063648,7.5063648 0 0 1 0.757812,3.287109 7.5063648,7.5063648 0 0 1 -7.505859,7.50586 7.5063648,7.5063648 0 0 1 -6.242188,-3.339844 7.5063647,7.5063647 0 0 0 6.744141,4.216797 7.5063647,7.5063647 0 0 0 7.505859,-7.505859 7.5063647,7.5063647 0 0 0 -1.259765,-4.164063 z"
         transform="scale(0.26458333)" />
    </g>
  </g>
</svg>
